<?xml version="1.0" standalone="no"?>
<!DOCTYPE svg PUBLIC "-//W3C//DTD SVG 20010904//EN"
 "http://www.w3.org/TR/2001/REC-SVG-20010904/DTD/svg10.dtd">
<svg version="1.0" xmlns="http://www.w3.org/2000/svg"
 width="225.000000pt" height="225.000000pt" viewBox="0 0 225.000000 225.000000"
 preserveAspectRatio="xMidYMid meet">

<g transform="translate(0.000000,225.000000) scale(0.100000,-0.100000)"
fill="#000000" stroke="none">
<path d="M621 1961 c-49 -52 -92 -223 -107 -420 -6 -86 -9 -94 -46 -144 -88
-116 -138 -249 -147 -387 l-6 -95 -54 -7 c-81 -10 -141 -29 -141 -45 0 -9 6
-12 19 -8 31 9 155 35 174 35 11 0 17 -8 17 -22 0 -12 14 -51 31 -88 l31 -67
-67 -64 c-68 -65 -91 -96 -81 -107 4 -3 42 29 85 72 l79 79 54 -45 c29 -24 69
-54 88 -65 48 -29 156 -69 210 -78 90 -15 90 -15 74 -87 -27 -128 -14 -207 46
-272 55 -59 120 -79 285 -84 96 -3 148 0 198 12 72 17 136 45 155 69 10 12 33
14 115 10 120 -6 169 4 229 50 59 45 81 95 82 182 1 60 -3 78 -29 125 -50 92
-130 125 -189 79 -36 -28 -34 -63 9 -143 38 -72 44 -119 19 -155 -21 -30 -73
-51 -124 -51 -61 0 -76 12 -84 67 -7 54 -45 142 -82 190 -27 35 -29 43 -13 43
7 0 53 20 103 43 103 50 191 116 256 194 24 29 48 53 53 53 17 0 127 -91 163
-135 20 -25 40 -45 45 -45 35 0 -42 94 -136 166 -27 21 -53 41 -57 44 -4 3 3
35 15 70 l22 65 85 -3 c47 -2 111 -10 144 -18 58 -15 73 -14 62 4 -8 14 -127
40 -212 47 l-72 7 -6 61 c-14 128 -66 251 -146 347 -36 43 -39 52 -49 145 -30
267 -86 405 -164 405 -54 0 -162 -87 -268 -216 l-25 -31 -148 1 c-123 1 -150
4 -159 17 -43 59 -131 149 -181 186 -73 54 -114 58 -155 14z m1014 -568 c81
-54 131 -147 136 -248 2 -56 -1 -60 -20 -20 -37 82 -117 101 -169 40 -67 -76
-71 -225 -8 -318 28 -41 22 -47 -51 -47 -86 0 -165 59 -212 159 -23 49 -26 69
-26 156 0 90 3 106 30 158 50 101 118 146 220 147 49 0 68 -5 100 -27z m-767
1 c107 -44 185 -203 163 -329 l-7 -40 -8 30 c-22 93 -109 149 -164 108 -53
-39 -67 -79 -67 -183 0 -85 3 -100 27 -142 l27 -48 -55 0 c-196 0 -308 262
-204 474 62 125 176 177 288 130z m798 -229 c32 -48 -15 -130 -53 -92 -21 21
-19 88 3 104 25 18 31 17 50 -12z m-748 -53 c3 -47 -10 -72 -39 -72 -20 0 -39
28 -39 57 0 31 30 64 53 61 18 -2 23 -11 25 -46z"/>
</g>
</svg>
